<svg width="1440" height="1024" viewBox="0 0 1440 1024" fill="none" xmlns="http://www.w3.org/2000/svg">
<rect width="1440" height="1024" fill="#D9D9D9"/>
<rect width="1440" height="1024" fill="#4880FF"/>
<path fill-rule="evenodd" clip-rule="evenodd" d="M265.5 1369C512.647 1369 713 1168.65 713 921.5C713 789.376 394.153 898.916 303.095 817C223.823 745.687 380.523 474 265.5 474C18.3526 474 -182 674.353 -182 921.5C-182 1168.65 18.3526 1369 265.5 1369Z" fill="#568AFF"/>
<path opacity="0.541829" fill-rule="evenodd" clip-rule="evenodd" d="M857.471 -219.915C807.505 63.4538 996.716 333.675 1280.08 383.64C1431.57 410.352 1370.44 22.6299 1482.77 -65.2125C1580.56 -141.685 1860.39 92.9069 1883.64 -38.9738C1933.61 -322.343 1744.4 -592.564 1461.03 -642.529C1177.66 -692.495 907.436 -503.284 857.471 -219.915Z" fill="#568AFF"/>
<path opacity="0.6" fill-rule="evenodd" clip-rule="evenodd" d="M212.512 -244.946C-19.7302 -160.417 -139.475 96.3779 -54.946 328.62C-9.7568 452.777 252.396 240.791 365.979 286.623C464.861 326.522 410.534 635.419 518.62 596.079C750.863 511.55 870.608 254.755 786.079 22.5125C701.55 -209.73 444.755 -329.475 212.512 -244.946Z" fill="#568AFF"/>
<path fill-rule="evenodd" clip-rule="evenodd" d="M1999.38 1020.96C2054.52 708.221 1845.7 409.992 1532.96 354.848C1365.77 325.368 1433.24 753.276 1309.27 850.223C1201.34 934.622 892.512 675.715 866.848 821.264C811.703 1134 1020.53 1432.23 1333.26 1487.38C1646 1542.52 1944.23 1333.7 1999.38 1020.96Z" fill="#568AFF"/>
</svg>
